<?xml version="1.0" encoding="UTF-8" standalone="no"?>
<!DOCTYPE svg PUBLIC "-//W3C//DTD SVG 1.1//EN" "http://www.w3.org/Graphics/SVG/1.1/DTD/svg11.dtd">
<svg width="100%" height="100%" viewBox="0 0 1576 377" version="1.1" xmlns="http://www.w3.org/2000/svg" xmlns:xlink="http://www.w3.org/1999/xlink" xml:space="preserve" style="fill-rule:evenodd;clip-rule:evenodd;stroke-linejoin:round;stroke-miterlimit:1.41421;">
    <g transform="matrix(1,0,0,1,-120.711,-392.121)">
        <g transform="matrix(-1.12426,0,0,1.07065,1162.12,-93.4565)">
            <path d="M761.5,516L846,700L677,700L761.5,516Z" style="fill:rgb(0,154,205);"/>
        </g>
        <g transform="matrix(1.1479,0,0,0.998319,-562.962,27.2485)">
            <rect x="749" y="703" width="16" height="39.5" style="fill:rgb(0,154,205);"/>
        </g>
        <g transform="matrix(1.0368,-0.492663,0.428466,0.901696,-716.15,452.742)">
            <rect x="749" y="703" width="16" height="39.5" style="fill:rgb(0,154,205);"/>
        </g>
        <g transform="matrix(0.716576,-0.896762,0.779909,0.623203,-669.408,913.47)">
            <rect x="749" y="703" width="16" height="39.5" style="fill:rgb(0,154,205);"/>
        </g>
        <g transform="matrix(0.24382,-1.1217,0.975538,0.212049,-419.431,1313.93)">
            <rect x="749" y="703" width="16" height="39.5" style="fill:rgb(0,154,205);"/>
        </g>
        <g transform="matrix(-0.24947,-1.12046,0.974457,-0.216963,-46.3092,1548.51)">
            <rect x="749" y="703" width="16" height="39.5" style="fill:rgb(0,154,205);"/>
        </g>
        <g transform="matrix(-0.713525,-0.899192,0.782023,-0.620549,411.651,1605.72)">
            <rect x="749" y="703" width="16" height="39.5" style="fill:rgb(0,154,205);"/>
        </g>
        <g transform="matrix(-1.03205,-0.502536,0.437053,-0.897566,843.759,1458.13)">
            <rect x="749" y="703" width="16" height="39.5" style="fill:rgb(0,154,205);"/>
        </g>
        <g transform="matrix(-1.1479,0,0,-0.998319,1175.1,1133.37)">
            <rect x="749" y="703" width="16" height="39.5" style="fill:rgb(0,154,205);"/>
        </g>
        <g transform="matrix(-1.0368,0.492663,-0.428466,-0.901696,1328.29,707.879)">
            <rect x="749" y="703" width="16" height="39.5" style="fill:rgb(0,154,205);"/>
        </g>
        <g transform="matrix(-0.716576,0.896762,-0.779909,-0.623203,1281.55,247.15)">
            <rect x="749" y="703" width="16" height="39.5" style="fill:rgb(0,154,205);"/>
        </g>
        <g transform="matrix(-0.24382,1.1217,-0.975538,-0.212049,1031.57,-153.307)">
            <rect x="749" y="703" width="16" height="39.5" style="fill:rgb(0,154,205);"/>
        </g>
        <g transform="matrix(0.24947,1.12046,-0.974457,0.216963,658.448,-387.889)">
            <rect x="749" y="703" width="16" height="39.5" style="fill:rgb(0,154,205);"/>
        </g>
        <g transform="matrix(0.713525,0.899192,-0.782023,0.620549,200.488,-445.099)">
            <rect x="749" y="703" width="16" height="39.5" style="fill:rgb(0,154,205);"/>
        </g>
        <g transform="matrix(1.03205,0.502536,-0.437053,0.897566,-231.62,-297.508)">
            <rect x="749" y="703" width="16" height="39.5" style="fill:rgb(0,154,205);"/>
        </g>
        <g transform="matrix(2.91505,0,0,2.91505,-1608.23,-876.913)">
            <path d="M759.865,473.341L760.865,473.341C764.065,473.341 768.915,472.891 768.915,477.441C768.915,481.591 764.015,481.441 761.115,481.441L759.865,481.441L759.865,473.341ZM765.165,488.941C772.065,488.941 778.815,486.341 778.815,478.441C778.815,473.191 776.515,469.541 771.115,468.841L771.115,468.741C774.165,467.191 775.265,464.441 775.265,461.041C775.265,453.841 770.765,451.241 764.065,451.241L750.065,451.241L750.065,488.941L765.165,488.941ZM759.865,458.741L760.565,458.741C763.215,458.741 766.265,458.941 766.265,462.391C766.265,465.591 763.565,466.041 760.965,466.041L759.865,466.041L759.865,458.741Z" style="fill:black;fill-rule:nonzero;"/>
            <rect x="783.915" y="451.241" width="9.8" height="37.7" style="fill:black;fill-rule:nonzero;"/>
            <path d="M818.265,467.891L818.265,475.591L826.265,475.591C825.865,479.941 822.615,482.141 818.365,482.141C811.915,482.141 808.415,476.191 808.415,470.341C808.415,464.591 811.765,458.441 818.215,458.441C822.165,458.441 825.015,460.841 826.365,464.441L835.665,460.541C832.415,453.491 826.415,449.991 818.665,449.991C806.515,449.991 798.215,458.041 798.215,470.291C798.215,482.141 806.465,490.191 818.315,490.191C824.615,490.191 830.165,487.941 833.865,482.791C837.215,478.091 837.615,473.391 837.715,467.891L818.265,467.891Z" style="fill:black;fill-rule:nonzero;"/>
            <path d="M777.015,512.141C774.115,510.941 771.215,510.241 768.065,510.241C762.765,510.241 757.415,512.541 753.715,516.341C750.115,520.041 748.165,524.991 748.165,530.141C748.165,535.741 750.065,540.641 754.215,544.391C758.115,547.941 763.115,549.941 768.365,549.941C771.415,549.941 773.765,549.191 777.015,548.191L777.015,536.441C774.965,538.891 771.765,540.441 768.565,540.441C762.465,540.441 758.365,536.141 758.365,530.191C758.365,524.341 762.415,519.741 768.415,519.741C771.765,519.741 775.015,521.191 777.015,523.891L777.015,512.141Z" style="fill:black;fill-rule:nonzero;"/>
            <path d="M802.015,509.991C791.165,509.991 781.165,517.991 781.165,529.391C781.165,541.591 789.915,550.191 802.015,550.191C814.115,550.191 822.865,541.591 822.865,529.391C822.865,517.991 812.865,509.991 802.015,509.991ZM802.015,519.491C807.865,519.491 812.665,524.241 812.665,529.441C812.665,535.941 807.865,540.691 802.015,540.691C796.165,540.691 791.365,535.941 791.365,529.441C791.365,524.241 796.165,519.491 802.015,519.491Z" style="fill:black;fill-rule:nonzero;"/>
            <path d="M846.915,533.491C852.265,532.541 855.165,528.041 855.165,522.841C855.165,514.791 849.515,511.241 842.065,511.241L827.415,511.241L827.415,548.941L837.215,548.941L837.215,534.441L837.315,534.441L846.565,548.941L858.765,548.941L846.915,533.491ZM837.215,518.741L838.165,518.741C841.365,518.741 844.965,519.341 844.965,523.441C844.965,527.541 841.365,528.141 838.165,528.141L837.215,528.141L837.215,518.741Z" style="fill:black;fill-rule:nonzero;"/>
            <path d="M861.415,548.941L871.215,548.941L871.215,536.441L876.765,536.441C885.315,536.441 890.115,532.541 890.115,523.641C890.115,514.991 884.515,511.241 876.415,511.241L861.415,511.241L861.415,548.941ZM871.215,519.141L872.865,519.141C876.665,519.141 879.915,519.191 879.915,523.941C879.915,528.541 876.415,528.541 872.865,528.541L871.215,528.541L871.215,519.141Z" style="fill:black;fill-rule:nonzero;"/>
            <path d="M913.415,509.991C902.565,509.991 892.565,517.991 892.565,529.391C892.565,541.591 901.315,550.191 913.415,550.191C925.515,550.191 934.265,541.591 934.265,529.391C934.265,517.991 924.265,509.991 913.415,509.991ZM913.415,519.491C919.265,519.491 924.065,524.241 924.065,529.441C924.065,535.941 919.265,540.691 913.415,540.691C907.565,540.691 902.765,535.941 902.765,529.441C902.765,524.241 907.565,519.491 913.415,519.491Z" style="fill:black;fill-rule:nonzero;"/>
            <path d="M958.315,533.491C963.665,532.541 966.565,528.041 966.565,522.841C966.565,514.791 960.915,511.241 953.465,511.241L938.815,511.241L938.815,548.941L948.615,548.941L948.615,534.441L948.715,534.441L957.965,548.941L970.165,548.941L958.315,533.491ZM948.615,518.741L949.565,518.741C952.765,518.741 956.365,519.341 956.365,523.441C956.365,527.541 952.765,528.141 949.565,528.141L948.615,528.141L948.615,518.741Z" style="fill:black;fill-rule:nonzero;"/>
            <path d="M995.915,542.391L998.365,548.941L1008.82,548.941L994.615,511.241L983.915,511.241L969.415,548.941L979.815,548.941L982.415,542.391L995.915,542.391ZM993.265,534.891L985.115,534.891L989.165,522.891L989.265,522.891L993.265,534.891Z" style="fill:black;fill-rule:nonzero;"/>
            <path d="M1023.87,519.541L1031.96,519.541L1031.96,511.241L1005.97,511.241L1005.97,519.541L1014.07,519.541L1014.07,548.941L1023.87,548.941L1023.87,519.541Z" style="fill:black;fill-rule:nonzero;"/>
            <rect x="1035.52" y="511.241" width="9.8" height="37.7" style="fill:black;fill-rule:nonzero;"/>
            <path d="M1070.66,509.991C1059.82,509.991 1049.82,517.991 1049.82,529.391C1049.82,541.591 1058.57,550.191 1070.66,550.191C1082.77,550.191 1091.52,541.591 1091.52,529.391C1091.52,517.991 1081.52,509.991 1070.66,509.991ZM1070.66,519.491C1076.52,519.491 1081.32,524.241 1081.32,529.441C1081.32,535.941 1076.52,540.691 1070.66,540.691C1064.82,540.691 1060.02,535.941 1060.02,529.441C1060.02,524.241 1064.82,519.491 1070.66,519.491Z" style="fill:black;fill-rule:nonzero;"/>
            <path d="M1096.07,548.941L1105.87,548.941L1105.87,525.841L1105.96,525.841L1123.91,548.941L1133.71,548.941L1133.71,511.241L1123.91,511.241L1123.91,534.291L1123.82,534.291L1105.87,511.241L1096.07,511.241L1096.07,548.941Z" style="fill:black;fill-rule:nonzero;"/>
        </g>
    </g>
</svg>
