<?xml version="1.0" encoding="UTF-8" standalone="no"?>
<!DOCTYPE svg PUBLIC "-//W3C//DTD SVG 1.1//EN" "http://www.w3.org/Graphics/SVG/1.1/DTD/svg11.dtd">
<svg width="100%" height="100%" viewBox="0 0 828 197" version="1.1" xmlns="http://www.w3.org/2000/svg" xmlns:xlink="http://www.w3.org/1999/xlink" xml:space="preserve" style="fill-rule:evenodd;clip-rule:evenodd;stroke-linejoin:round;stroke-miterlimit:1.41421;">
    <g transform="matrix(1,0,0,1,-44,-120.286)">
        <g transform="matrix(2.53018,0,0,2.53018,-1607.96,-1031.89)">
            <path d="M754.704,479.534L755.307,479.534C757.237,479.534 760.161,479.263 760.161,482.006C760.161,484.509 757.207,484.418 755.458,484.418L754.704,484.418L754.704,479.534ZM757.9,488.941C762.061,488.941 766.131,487.373 766.131,482.609C766.131,479.444 764.744,477.243 761.488,476.821L761.488,476.76C763.327,475.826 763.99,474.168 763.99,472.118C763.99,467.776 761.277,466.208 757.237,466.208L748.795,466.208L748.795,488.941L757.9,488.941ZM754.704,470.731L755.126,470.731C756.724,470.731 758.563,470.851 758.563,472.932C758.563,474.861 756.935,475.132 755.367,475.132L754.704,475.132L754.704,470.731Z" style="fill:black;fill-rule:nonzero;"/>
            <rect x="769.206" y="466.208" width="5.909" height="22.732" style="fill:black;fill-rule:nonzero;"/>
            <path d="M789.918,476.248L789.918,480.891L794.742,480.891C794.501,483.514 792.541,484.84 789.979,484.84C786.089,484.84 783.979,481.253 783.979,477.725C783.979,474.258 785.999,470.55 789.888,470.55C792.27,470.55 793.988,471.997 794.802,474.168L800.41,471.816C798.45,467.565 794.833,465.455 790.159,465.455C782.833,465.455 777.829,470.309 777.829,477.695C777.829,484.84 782.803,489.694 789.948,489.694C793.747,489.694 797.094,488.338 799.325,485.232C801.345,482.398 801.586,479.564 801.646,476.248L789.918,476.248Z" style="fill:black;fill-rule:nonzero;"/>
            <path d="M765.045,496.9C763.297,496.176 761.548,495.754 759.649,495.754C756.453,495.754 753.227,497.141 750.996,499.433C748.825,501.664 747.649,504.648 747.649,507.754C747.649,511.13 748.795,514.085 751.297,516.346C753.649,518.487 756.664,519.693 759.83,519.693C761.669,519.693 763.086,519.24 765.045,518.637L765.045,511.552C763.809,513.03 761.88,513.964 759.95,513.964C756.272,513.964 753.8,511.372 753.8,507.784C753.8,504.256 756.242,501.483 759.86,501.483C761.88,501.483 763.839,502.357 765.045,503.985L765.045,496.9Z" style="fill:black;fill-rule:nonzero;"/>
            <path d="M780.12,495.604C773.577,495.604 767.548,500.427 767.548,507.301C767.548,514.658 772.824,519.843 780.12,519.843C787.416,519.843 792.692,514.658 792.692,507.301C792.692,500.427 786.662,495.604 780.12,495.604ZM780.12,501.332C783.647,501.332 786.542,504.196 786.542,507.332C786.542,511.251 783.647,514.115 780.12,514.115C776.592,514.115 773.698,511.251 773.698,507.332C773.698,504.196 776.592,501.332 780.12,501.332Z" style="fill:black;fill-rule:nonzero;"/>
            <path d="M807.194,509.774C810.42,509.201 812.168,506.487 812.168,503.352C812.168,498.498 808.761,496.357 804.269,496.357L795.436,496.357L795.436,519.09L801.345,519.09L801.345,510.347L801.405,510.347L806.983,519.09L814.339,519.09L807.194,509.774ZM801.345,500.88L801.918,500.88C803.847,500.88 806.018,501.241 806.018,503.714C806.018,506.186 803.847,506.548 801.918,506.548L801.345,506.548L801.345,500.88Z" style="fill:black;fill-rule:nonzero;"/>
            <path d="M815.937,519.09L821.846,519.09L821.846,511.552L825.193,511.552C830.348,511.552 833.242,509.201 833.242,503.834C833.242,498.619 829.866,496.357 824.982,496.357L815.937,496.357L815.937,519.09ZM821.846,501.121L822.841,501.121C825.132,501.121 827.092,501.151 827.092,504.015C827.092,506.789 824.982,506.789 822.841,506.789L821.846,506.789L821.846,501.121Z" style="fill:black;fill-rule:nonzero;"/>
            <path d="M847.292,495.604C840.75,495.604 834.72,500.427 834.72,507.301C834.72,514.658 839.996,519.843 847.292,519.843C854.588,519.843 859.864,514.658 859.864,507.301C859.864,500.427 853.834,495.604 847.292,495.604ZM847.292,501.332C850.819,501.332 853.714,504.196 853.714,507.332C853.714,511.251 850.819,514.115 847.292,514.115C843.764,514.115 840.87,511.251 840.87,507.332C840.87,504.196 843.764,501.332 847.292,501.332Z" style="fill:black;fill-rule:nonzero;"/>
            <path d="M874.366,509.774C877.592,509.201 879.34,506.487 879.34,503.352C879.34,498.498 875.934,496.357 871.441,496.357L862.608,496.357L862.608,519.09L868.517,519.09L868.517,510.347L868.577,510.347L874.155,519.09L881.511,519.09L874.366,509.774ZM868.517,500.88L869.09,500.88C871.019,500.88 873.19,501.241 873.19,503.714C873.19,506.186 871.019,506.548 869.09,506.548L868.517,506.548L868.517,500.88Z" style="fill:black;fill-rule:nonzero;"/>
            <path d="M897.038,515.14L898.515,519.09L904.816,519.09L896.254,496.357L889.802,496.357L881.059,519.09L887.33,519.09L888.898,515.14L897.038,515.14ZM895.44,510.618L890.526,510.618L892.968,503.382L893.028,503.382L895.44,510.618Z" style="fill:black;fill-rule:nonzero;"/>
            <path d="M913.891,501.362L918.775,501.362L918.775,496.357L903.098,496.357L903.098,501.362L907.982,501.362L907.982,519.09L913.891,519.09L913.891,501.362Z" style="fill:black;fill-rule:nonzero;"/>
            <rect x="920.916" y="496.357" width="5.909" height="22.732" style="fill:black;fill-rule:nonzero;"/>
            <path d="M942.111,495.604C935.568,495.604 929.539,500.427 929.539,507.301C929.539,514.658 934.815,519.843 942.111,519.843C949.407,519.843 954.683,514.658 954.683,507.301C954.683,500.427 948.653,495.604 942.111,495.604ZM942.111,501.332C945.638,501.332 948.532,504.196 948.532,507.332C948.532,511.251 945.638,514.115 942.111,514.115C938.583,514.115 935.689,511.251 935.689,507.332C935.689,504.196 938.583,501.332 942.111,501.332Z" style="fill:black;fill-rule:nonzero;"/>
            <path d="M957.426,519.09L963.336,519.09L963.336,505.161L963.396,505.161L974.219,519.09L980.129,519.09L980.129,496.357L974.219,496.357L974.219,510.256L974.159,510.256L963.336,496.357L957.426,496.357L957.426,519.09Z" style="fill:black;fill-rule:nonzero;"/>
        </g>
        <g transform="matrix(0.875786,0,0,0.875786,43.1242,56.3537)">
            <path d="M120.718,73.266C115.579,72.911 110.421,72.911 105.282,73.266L107.909,111.296C111.299,111.062 114.701,111.062 118.091,111.296L120.718,73.266ZM63.817,84.377C59.189,86.639 54.722,89.218 50.449,92.095L71.739,123.716C74.558,121.819 77.504,120.117 80.557,118.625L63.817,84.377ZM20.095,122.449C17.218,126.722 14.639,131.189 12.377,135.817L46.625,152.557C48.117,149.504 49.819,146.558 51.716,143.739L20.095,122.449ZM1.266,177.282C0.911,182.421 0.911,187.579 1.266,192.718L39.296,190.091C39.062,186.701 39.062,183.299 39.296,179.909L1.266,177.282ZM12.377,234.183C14.639,238.811 17.218,243.278 20.095,247.551L51.716,226.261C49.819,223.442 48.117,220.496 46.625,217.443L12.377,234.183ZM50.449,277.905C54.722,280.782 59.189,283.361 63.817,285.623L80.557,251.375C77.504,249.883 74.558,248.181 71.739,246.284L50.449,277.905ZM105.282,296.734C110.421,297.089 115.579,297.089 120.718,296.734L118.091,258.704C114.701,258.938 111.299,258.938 107.909,258.704L105.282,296.734ZM162.183,285.623C166.811,283.361 171.278,280.782 175.551,277.905L154.261,246.284C151.442,248.181 148.496,249.883 145.443,251.375L162.183,285.623ZM205.905,247.551C208.782,243.278 211.361,238.811 213.623,234.183L179.375,217.443C177.883,220.496 176.181,223.442 174.284,226.261L205.905,247.551ZM224.734,192.718C225.089,187.579 225.089,182.421 224.734,177.282L186.704,179.909C186.938,183.299 186.938,186.701 186.704,190.091L224.734,192.718ZM213.623,135.817C211.361,131.189 208.782,126.722 205.905,122.449L174.284,143.739C176.181,146.558 177.883,149.504 179.375,152.557L213.623,135.817ZM175.551,92.095C171.278,89.218 166.811,86.639 162.183,84.377L145.443,118.625C148.496,120.117 151.442,121.819 154.261,123.716L175.551,92.095Z" style="fill:rgb(0,154,205);"/>
        </g>
        <g transform="matrix(0.863556,-1.36307e-17,-1.69208e-17,0.751293,-34.0773,69.7929)">
            <path d="M204,127L258,235L150,235L204,127Z" style="fill:rgb(0,154,205);"/>
        </g>
    </g>
</svg>
