<?xml version="1.0" encoding="UTF-8" standalone="no"?>
<!DOCTYPE svg PUBLIC "-//W3C//DTD SVG 1.1//EN" "http://www.w3.org/Graphics/SVG/1.1/DTD/svg11.dtd">
<svg width="100%" height="100%" viewBox="0 0 995 224" version="1.1" xmlns="http://www.w3.org/2000/svg" xmlns:xlink="http://www.w3.org/1999/xlink" xml:space="preserve" style="fill-rule:evenodd;clip-rule:evenodd;stroke-linejoin:round;stroke-miterlimit:1.41421;">
    <g transform="matrix(1,0,0,1,-14,-182.388)">
        <g transform="matrix(2.88867,0,0,2.88867,-1872.02,-1133.04)">
            <path d="M754.704,479.534L755.307,479.534C757.237,479.534 760.161,479.263 760.161,482.006C760.161,484.509 757.207,484.418 755.458,484.418L754.704,484.418L754.704,479.534ZM757.9,488.941C762.061,488.941 766.131,487.373 766.131,482.609C766.131,479.444 764.744,477.243 761.488,476.821L761.488,476.76C763.327,475.826 763.99,474.168 763.99,472.118C763.99,467.776 761.277,466.208 757.237,466.208L748.795,466.208L748.795,488.941L757.9,488.941ZM754.704,470.731L755.126,470.731C756.724,470.731 758.563,470.851 758.563,472.932C758.563,474.861 756.935,475.132 755.367,475.132L754.704,475.132L754.704,470.731Z" style="fill:black;fill-rule:nonzero;"/>
            <rect x="770.713" y="466.208" width="5.909" height="22.732" style="fill:black;fill-rule:nonzero;"/>
            <path d="M792.933,476.248L792.933,480.891L797.757,480.891C797.516,483.514 795.556,484.84 792.993,484.84C789.104,484.84 786.994,481.253 786.994,477.725C786.994,474.258 789.014,470.55 792.903,470.55C795.285,470.55 797.003,471.997 797.817,474.168L803.425,471.816C801.465,467.565 797.847,465.455 793.174,465.455C785.848,465.455 780.843,470.309 780.843,477.695C780.843,484.84 785.818,489.694 792.963,489.694C796.762,489.694 800.109,488.338 802.34,485.232C804.36,482.398 804.601,479.564 804.661,476.248L792.933,476.248Z" style="fill:black;fill-rule:nonzero;"/>
            <path d="M765.045,496.9C763.297,496.176 761.548,495.754 759.649,495.754C756.453,495.754 753.227,497.141 750.996,499.433C748.825,501.664 747.649,504.648 747.649,507.754C747.649,511.13 748.795,514.085 751.297,516.346C753.649,518.487 756.664,519.693 759.83,519.693C761.669,519.693 763.086,519.24 765.045,518.637L765.045,511.552C763.809,513.03 761.88,513.964 759.95,513.964C756.272,513.964 753.8,511.372 753.8,507.784C753.8,504.256 756.242,501.483 759.86,501.483C761.88,501.483 763.839,502.357 765.045,503.985L765.045,496.9Z" style="fill:black;fill-rule:nonzero;"/>
            <path d="M781.627,495.604C775.085,495.604 769.055,500.427 769.055,507.301C769.055,514.658 774.331,519.843 781.627,519.843C788.923,519.843 794.199,514.658 794.199,507.301C794.199,500.427 788.17,495.604 781.627,495.604ZM781.627,501.332C785.155,501.332 788.049,504.196 788.049,507.332C788.049,511.251 785.155,514.115 781.627,514.115C778.1,514.115 775.206,511.251 775.206,507.332C775.206,504.196 778.1,501.332 781.627,501.332Z" style="fill:black;fill-rule:nonzero;"/>
            <path d="M810.209,509.774C813.435,509.201 815.183,506.487 815.183,503.352C815.183,498.498 811.776,496.357 807.284,496.357L798.45,496.357L798.45,519.09L804.36,519.09L804.36,510.347L804.42,510.347L809.998,519.09L817.354,519.09L810.209,509.774ZM804.36,500.88L804.933,500.88C806.862,500.88 809.033,501.241 809.033,503.714C809.033,506.186 806.862,506.548 804.933,506.548L804.36,506.548L804.36,500.88Z" style="fill:black;fill-rule:nonzero;"/>
            <path d="M820.459,519.09L826.368,519.09L826.368,511.552L829.715,511.552C834.871,511.552 837.765,509.201 837.765,503.834C837.765,498.619 834.388,496.357 829.504,496.357L820.459,496.357L820.459,519.09ZM826.368,501.121L827.363,501.121C829.655,501.121 831.614,501.151 831.614,504.015C831.614,506.789 829.504,506.789 827.363,506.789L826.368,506.789L826.368,501.121Z" style="fill:black;fill-rule:nonzero;"/>
            <path d="M853.322,495.604C846.779,495.604 840.75,500.427 840.75,507.301C840.75,514.658 846.026,519.843 853.322,519.843C860.618,519.843 865.894,514.658 865.894,507.301C865.894,500.427 859.864,495.604 853.322,495.604ZM853.322,501.332C856.849,501.332 859.743,504.196 859.743,507.332C859.743,511.251 856.849,514.115 853.322,514.115C849.794,514.115 846.9,511.251 846.9,507.332C846.9,504.196 849.794,501.332 853.322,501.332Z" style="fill:black;fill-rule:nonzero;"/>
            <path d="M881.903,509.774C885.129,509.201 886.878,506.487 886.878,503.352C886.878,498.498 883.471,496.357 878.979,496.357L870.145,496.357L870.145,519.09L876.054,519.09L876.054,510.347L876.114,510.347L881.692,519.09L889.048,519.09L881.903,509.774ZM876.054,500.88L876.627,500.88C878.557,500.88 880.727,501.241 880.727,503.714C880.727,506.186 878.557,506.548 876.627,506.548L876.054,506.548L876.054,500.88Z" style="fill:black;fill-rule:nonzero;"/>
            <path d="M906.083,515.14L907.56,519.09L913.861,519.09L905.299,496.357L898.847,496.357L890.104,519.09L896.375,519.09L897.942,515.14L906.083,515.14ZM904.485,510.618L899.57,510.618L902.012,503.382L902.073,503.382L904.485,510.618Z" style="fill:black;fill-rule:nonzero;"/>
            <path d="M926.252,501.362L931.136,501.362L931.136,496.357L915.459,496.357L915.459,501.362L920.343,501.362L920.343,519.09L926.252,519.09L926.252,501.362Z" style="fill:black;fill-rule:nonzero;"/>
            <rect x="934.784" y="496.357" width="5.909" height="22.732" style="fill:black;fill-rule:nonzero;"/>
            <path d="M957.487,495.604C950.944,495.604 944.915,500.427 944.915,507.301C944.915,514.658 950.191,519.843 957.487,519.843C964.783,519.843 970.059,514.658 970.059,507.301C970.059,500.427 964.029,495.604 957.487,495.604ZM957.487,501.332C961.014,501.332 963.908,504.196 963.908,507.332C963.908,511.251 961.014,514.115 957.487,514.115C953.959,514.115 951.065,511.251 951.065,507.332C951.065,504.196 953.959,501.332 957.487,501.332Z" style="fill:black;fill-rule:nonzero;"/>
            <path d="M974.31,519.09L980.219,519.09L980.219,505.161L980.279,505.161L991.103,519.09L997.012,519.09L997.012,496.357L991.103,496.357L991.103,510.256L991.043,510.256L980.219,496.357L974.31,496.357L974.31,519.09Z" style="fill:black;fill-rule:nonzero;"/>
        </g>
        <g transform="matrix(0.999873,0,0,0.999873,13.0001,109.398)">
            <path d="M120.718,73.266C115.579,72.911 110.421,72.911 105.282,73.266L107.909,111.296C111.299,111.062 114.701,111.062 118.091,111.296L120.718,73.266ZM63.817,84.377C59.189,86.639 54.722,89.218 50.449,92.095L71.739,123.716C74.558,121.819 77.504,120.117 80.557,118.625L63.817,84.377ZM20.095,122.449C17.218,126.722 14.639,131.189 12.377,135.817L46.625,152.557C48.117,149.504 49.819,146.558 51.716,143.739L20.095,122.449ZM1.266,177.282C0.911,182.421 0.911,187.579 1.266,192.718L39.296,190.091C39.062,186.701 39.062,183.299 39.296,179.909L1.266,177.282ZM12.377,234.183C14.639,238.811 17.218,243.278 20.095,247.551L51.716,226.261C49.819,223.442 48.117,220.496 46.625,217.443L12.377,234.183ZM50.449,277.905C54.722,280.782 59.189,283.361 63.817,285.623L80.557,251.375C77.504,249.883 74.558,248.181 71.739,246.284L50.449,277.905ZM105.282,296.734C110.421,297.089 115.579,297.089 120.718,296.734L118.091,258.704C114.701,258.938 111.299,258.938 107.909,258.704L105.282,296.734ZM162.183,285.623C166.811,283.361 171.278,280.782 175.551,277.905L154.261,246.284C151.442,248.181 148.496,249.883 145.443,251.375L162.183,285.623ZM205.905,247.551C208.782,243.278 211.361,238.811 213.623,234.183L179.375,217.443C177.883,220.496 176.181,223.442 174.284,226.261L205.905,247.551ZM224.734,192.718C225.089,187.579 225.089,182.421 224.734,177.282L186.704,179.909C186.938,183.299 186.938,186.701 186.704,190.091L224.734,192.718ZM213.623,135.817C211.361,131.189 208.782,126.722 205.905,122.449L174.284,143.739C176.181,146.558 177.883,149.504 179.375,152.557L213.623,135.817ZM175.551,92.095C171.278,89.218 166.811,86.639 162.183,84.377L145.443,118.625C148.496,120.117 151.442,121.819 154.261,123.716L175.551,92.095Z" style="fill:rgb(0,154,205);"/>
        </g>
        <g transform="matrix(0.98591,-1.55619e-17,-1.93183e-17,0.857741,-75.1398,124.741)">
            <path d="M204,127L258,235L150,235L204,127Z" style="fill:rgb(0,154,205);"/>
        </g>
    </g>
</svg>
