<?xml version="1.0" encoding="UTF-8" standalone="no"?><!DOCTYPE svg PUBLIC "-//W3C//DTD SVG 1.1//EN" "http://www.w3.org/Graphics/SVG/1.1/DTD/svg11.dtd"><svg width="100%" height="100%" viewBox="0 0 1000 1000" version="1.1" xmlns="http://www.w3.org/2000/svg" xmlns:xlink="http://www.w3.org/1999/xlink" xml:space="preserve" style="fill-rule:evenodd;clip-rule:evenodd;stroke-linejoin:round;stroke-miterlimit:1.41421;"><path d="M502,122l168.875,292.5l-337.75,0l168.875,-292.5Z" style="fill:#009acd;"/><path d="M714.176,439.5l-424.352,0l212.176,-367.5l212.176,367.5ZM376.426,389.5l251.148,0l-125.574,-217.5l-125.574,217.5Z" style="fill:#009acd;"/><path d="M935.013,872l-866.026,0l168.917,-292.5l528.192,0l168.917,292.5Z" style="fill:#000;"/><path d="M978.319,897l-952.638,0l197.791,-342.5l557.056,0l197.791,342.5ZM252.336,604.5l-140.042,242.5l779.412,0l-140.042,-242.5l-499.328,0Z" style="fill:#000;"/><path d="M379.871,787.834l0,-165.701l24.898,0c11.09,0 19.925,0.859 26.508,2.576c6.653,1.717 12.27,4.615 16.849,8.693c4.65,4.221 8.335,9.48 11.054,15.776c2.79,6.367 4.185,12.807 4.185,19.317c0,11.877 -4.543,21.929 -13.629,30.157c8.8,3.005 15.74,8.263 20.819,15.776c5.152,7.441 7.727,16.098 7.727,25.971c0,12.95 -4.578,23.896 -13.736,32.84c-5.509,5.509 -11.698,9.336 -18.567,11.483c-7.512,2.075 -16.92,3.112 -28.225,3.112l-37.883,0ZM404.876,693.286l7.834,0c9.301,0 16.116,-2.057 20.445,-6.171c4.328,-4.114 6.493,-10.177 6.493,-18.19c0,-7.799 -2.218,-13.719 -6.654,-17.762c-4.436,-4.042 -10.875,-6.063 -19.318,-6.063l-8.8,0l0,48.186ZM404.876,764.331l15.454,0c11.304,0 19.604,-2.218 24.898,-6.654c5.581,-4.793 8.371,-10.875 8.371,-18.244c0,-7.154 -2.683,-13.164 -8.049,-18.029c-5.223,-4.794 -14.559,-7.191 -28.01,-7.191l-12.664,0l0,50.118Z" style="fill:#fff;fill-rule:nonzero;"/><path d="M632.285,631.041l0,29.62c-14.452,-12.091 -29.405,-18.137 -44.859,-18.137c-17.028,0 -31.373,6.117 -43.035,18.352c-11.733,12.162 -17.6,27.044 -17.6,44.644c0,17.386 5.867,32.053 17.6,44.001c11.734,11.948 26.114,17.922 43.142,17.922c8.801,0 16.277,-1.43 22.43,-4.292c3.434,-1.431 6.994,-3.363 10.678,-5.796c3.685,-2.432 7.566,-5.365 11.644,-8.8l0,30.157c-14.309,8.085 -29.333,12.127 -45.074,12.127c-23.681,0 -43.893,-8.264 -60.635,-24.791c-16.67,-16.67 -25.005,-36.774 -25.005,-60.313c0,-21.106 6.975,-39.923 20.927,-56.45c17.171,-20.247 39.386,-30.371 66.645,-30.371c14.882,0 29.262,4.042 43.142,12.127Z" style="fill:#fff;fill-rule:nonzero;"/></svg>